<svg width="512" height="512" viewBox="0 0 512 512" fill="none" xmlns="http://www.w3.org/2000/svg">
<circle cx="256" cy="256" r="256" fill="white"/>
<path fill-rule="evenodd" clip-rule="evenodd" d="M150 106C148.895 106 148 106.895 148 108V220.264L218 208.385V108C218 106.895 217.105 106 216 106H150ZM218 294.665L148 325.33V404C148 405.105 148.895 406 150 406H216C217.105 406 218 405.105 218 404V294.665ZM293.25 261.699L363.25 231.033V404C363.25 405.105 362.354 406 361.25 406H295.25C294.145 406 293.25 405.105 293.25 404V261.699ZM363.25 183.737L293.25 195.616V108C293.25 106.895 294.145 106 295.25 106H361.25C362.354 106 363.25 106.895 363.25 108V183.737Z" fill="#212121"/>
<path d="M98.8445 241.316L112.855 323.812C113.073 325.095 114.439 325.831 115.63 325.309L431.603 186.77C433.763 185.823 432.79 182.572 430.465 182.966L100.481 239.01C99.3924 239.195 98.6595 240.227 98.8445 241.316Z" fill="#D50000"/>
</svg>
